<mxfile host="app.diagrams.net" agent="Mozilla/5.0 (Windows NT 10.0; Win64; x64) AppleWebKit/537.36 (KHTML, like Gecko) Chrome/131.0.0.0 Safari/537.36" version="24.9.1">
  <diagram name="第 1 页" id="9_dmF0Gqbkqyzsbqb1z4">
    <mxGraphModel dx="971" dy="426" grid="0" gridSize="10" guides="1" tooltips="1" connect="1" arrows="1" fold="1" page="0" pageScale="1" pageWidth="827" pageHeight="1169" math="0" shadow="0">
      <root>
        <mxCell id="0" />
        <mxCell id="1" parent="0" />
        <mxCell id="SHQMfxS1oJXAGr1VGw0D-113" value="" style="group;" vertex="1" connectable="0" parent="1">
          <mxGeometry x="200" y="296" width="147" height="136.5" as="geometry" />
        </mxCell>
        <mxCell id="SHQMfxS1oJXAGr1VGw0D-48" value="" style="rounded=1;whiteSpace=wrap;html=1;fillColor=none;fontColor=#333333;strokeColor=#666666;strokeWidth=2;" vertex="1" parent="SHQMfxS1oJXAGr1VGw0D-113">
          <mxGeometry width="147" height="136.5" as="geometry" />
        </mxCell>
        <mxCell id="SHQMfxS1oJXAGr1VGw0D-49" value="" style="rounded=0;whiteSpace=wrap;html=1;fillColor=#dae8fc;strokeColor=#6c8ebf;" vertex="1" parent="SHQMfxS1oJXAGr1VGw0D-113">
          <mxGeometry x="19" y="22.5" width="30" height="15" as="geometry" />
        </mxCell>
        <mxCell id="SHQMfxS1oJXAGr1VGw0D-50" value="" style="rounded=0;whiteSpace=wrap;html=1;fillColor=#dae8fc;strokeColor=#6c8ebf;" vertex="1" parent="SHQMfxS1oJXAGr1VGw0D-113">
          <mxGeometry x="96" y="22.5" width="30" height="15" as="geometry" />
        </mxCell>
        <mxCell id="SHQMfxS1oJXAGr1VGw0D-51" value="" style="rounded=0;whiteSpace=wrap;html=1;fillColor=#dae8fc;strokeColor=#6c8ebf;" vertex="1" parent="SHQMfxS1oJXAGr1VGw0D-113">
          <mxGeometry x="96" y="67.5" width="30" height="15" as="geometry" />
        </mxCell>
        <mxCell id="SHQMfxS1oJXAGr1VGw0D-52" value="" style="rounded=0;whiteSpace=wrap;html=1;fillColor=#dae8fc;strokeColor=#6c8ebf;" vertex="1" parent="SHQMfxS1oJXAGr1VGw0D-113">
          <mxGeometry x="96" y="37.5" width="30" height="15" as="geometry" />
        </mxCell>
        <mxCell id="SHQMfxS1oJXAGr1VGw0D-53" value="" style="rounded=0;whiteSpace=wrap;html=1;fillColor=#dae8fc;strokeColor=#6c8ebf;" vertex="1" parent="SHQMfxS1oJXAGr1VGw0D-113">
          <mxGeometry x="96" y="52.5" width="30" height="15" as="geometry" />
        </mxCell>
        <mxCell id="SHQMfxS1oJXAGr1VGw0D-54" value="" style="rounded=0;whiteSpace=wrap;html=1;fillColor=#dae8fc;strokeColor=#6c8ebf;" vertex="1" parent="SHQMfxS1oJXAGr1VGw0D-113">
          <mxGeometry x="96" y="82.5" width="30" height="15" as="geometry" />
        </mxCell>
        <mxCell id="SHQMfxS1oJXAGr1VGw0D-55" value="" style="rounded=0;whiteSpace=wrap;html=1;fillColor=#dae8fc;strokeColor=#6c8ebf;" vertex="1" parent="SHQMfxS1oJXAGr1VGw0D-113">
          <mxGeometry x="19" y="106.5" width="30" height="15" as="geometry" />
        </mxCell>
        <mxCell id="SHQMfxS1oJXAGr1VGw0D-56" value="" style="rounded=0;whiteSpace=wrap;html=1;fillColor=#dae8fc;strokeColor=#6c8ebf;" vertex="1" parent="SHQMfxS1oJXAGr1VGw0D-113">
          <mxGeometry x="66" y="67.5" width="30" height="15" as="geometry" />
        </mxCell>
        <mxCell id="SHQMfxS1oJXAGr1VGw0D-57" value="" style="rounded=0;whiteSpace=wrap;html=1;fillColor=#dae8fc;strokeColor=#6c8ebf;" vertex="1" parent="SHQMfxS1oJXAGr1VGw0D-113">
          <mxGeometry x="66" y="82.5" width="30" height="15" as="geometry" />
        </mxCell>
        <mxCell id="SHQMfxS1oJXAGr1VGw0D-58" value="" style="rounded=0;whiteSpace=wrap;html=1;fillColor=#f8cecc;strokeColor=#b85450;" vertex="1" parent="SHQMfxS1oJXAGr1VGw0D-113">
          <mxGeometry x="61" y="62.5" width="15" height="15" as="geometry" />
        </mxCell>
        <mxCell id="SHQMfxS1oJXAGr1VGw0D-59" value="" style="rounded=0;whiteSpace=wrap;html=1;fillColor=none;" vertex="1" parent="SHQMfxS1oJXAGr1VGw0D-113">
          <mxGeometry x="11.5" y="15" width="45" height="30" as="geometry" />
        </mxCell>
        <mxCell id="SHQMfxS1oJXAGr1VGw0D-60" value="" style="endArrow=none;html=1;rounded=0;fontSize=12;startSize=8;endSize=8;curved=1;" edge="1" parent="SHQMfxS1oJXAGr1VGw0D-113" source="SHQMfxS1oJXAGr1VGw0D-94">
          <mxGeometry width="50" height="50" relative="1" as="geometry">
            <mxPoint x="58.5" y="60" as="sourcePoint" />
            <mxPoint x="88.5" y="60" as="targetPoint" />
          </mxGeometry>
        </mxCell>
        <mxCell id="SHQMfxS1oJXAGr1VGw0D-61" value="" style="endArrow=none;html=1;rounded=0;fontSize=12;startSize=8;endSize=8;curved=1;" edge="1" parent="SHQMfxS1oJXAGr1VGw0D-113" source="SHQMfxS1oJXAGr1VGw0D-67">
          <mxGeometry width="50" height="50" relative="1" as="geometry">
            <mxPoint x="88.5" y="15" as="sourcePoint" />
            <mxPoint x="88.5" y="60" as="targetPoint" />
          </mxGeometry>
        </mxCell>
        <mxCell id="SHQMfxS1oJXAGr1VGw0D-62" value="" style="endArrow=none;html=1;rounded=0;fontSize=12;startSize=8;endSize=8;curved=1;" edge="1" parent="SHQMfxS1oJXAGr1VGw0D-113" source="SHQMfxS1oJXAGr1VGw0D-88">
          <mxGeometry width="50" height="50" relative="1" as="geometry">
            <mxPoint x="88.5" y="15" as="sourcePoint" />
            <mxPoint x="133.5" y="15" as="targetPoint" />
          </mxGeometry>
        </mxCell>
        <mxCell id="SHQMfxS1oJXAGr1VGw0D-63" value="" style="endArrow=none;html=1;rounded=0;fontSize=12;startSize=8;endSize=8;curved=1;" edge="1" parent="SHQMfxS1oJXAGr1VGw0D-113" source="SHQMfxS1oJXAGr1VGw0D-109">
          <mxGeometry width="50" height="50" relative="1" as="geometry">
            <mxPoint x="133.5" y="15" as="sourcePoint" />
            <mxPoint x="133.5" y="105" as="targetPoint" />
          </mxGeometry>
        </mxCell>
        <mxCell id="SHQMfxS1oJXAGr1VGw0D-64" value="" style="endArrow=none;html=1;rounded=0;fontSize=12;startSize=8;endSize=8;curved=1;" edge="1" parent="SHQMfxS1oJXAGr1VGw0D-113" source="SHQMfxS1oJXAGr1VGw0D-92">
          <mxGeometry width="50" height="50" relative="1" as="geometry">
            <mxPoint x="133.5" y="105" as="sourcePoint" />
            <mxPoint x="58.5" y="105" as="targetPoint" />
          </mxGeometry>
        </mxCell>
        <mxCell id="SHQMfxS1oJXAGr1VGw0D-65" value="" style="endArrow=none;html=1;rounded=0;fontSize=12;startSize=8;endSize=8;curved=1;" edge="1" parent="SHQMfxS1oJXAGr1VGw0D-113" source="SHQMfxS1oJXAGr1VGw0D-103">
          <mxGeometry width="50" height="50" relative="1" as="geometry">
            <mxPoint x="58.5" y="60" as="sourcePoint" />
            <mxPoint x="58.5" y="105" as="targetPoint" />
          </mxGeometry>
        </mxCell>
        <mxCell id="SHQMfxS1oJXAGr1VGw0D-66" value="" style="rounded=0;whiteSpace=wrap;html=1;fillColor=none;" vertex="1" parent="SHQMfxS1oJXAGr1VGw0D-113">
          <mxGeometry x="11.5" y="99" width="45" height="30" as="geometry" />
        </mxCell>
        <mxCell id="SHQMfxS1oJXAGr1VGw0D-68" value="" style="endArrow=none;html=1;rounded=0;fontSize=12;startSize=8;endSize=8;curved=1;" edge="1" parent="SHQMfxS1oJXAGr1VGw0D-113" target="SHQMfxS1oJXAGr1VGw0D-67">
          <mxGeometry width="50" height="50" relative="1" as="geometry">
            <mxPoint x="88.5" y="15" as="sourcePoint" />
            <mxPoint x="88.5" y="60" as="targetPoint" />
          </mxGeometry>
        </mxCell>
        <mxCell id="SHQMfxS1oJXAGr1VGw0D-67" value="" style="shape=waypoint;fillStyle=solid;size=6;pointerEvents=1;points=[];fillColor=none;resizable=0;rotatable=0;perimeter=centerPerimeter;snapToPoint=1;" vertex="1" parent="SHQMfxS1oJXAGr1VGw0D-113">
          <mxGeometry x="78" y="5.5" width="20" height="20" as="geometry" />
        </mxCell>
        <mxCell id="SHQMfxS1oJXAGr1VGw0D-89" value="" style="endArrow=none;html=1;rounded=0;fontSize=12;startSize=8;endSize=8;curved=1;" edge="1" parent="SHQMfxS1oJXAGr1VGw0D-113" target="SHQMfxS1oJXAGr1VGw0D-88">
          <mxGeometry width="50" height="50" relative="1" as="geometry">
            <mxPoint x="88.5" y="15" as="sourcePoint" />
            <mxPoint x="133.5" y="15" as="targetPoint" />
          </mxGeometry>
        </mxCell>
        <mxCell id="SHQMfxS1oJXAGr1VGw0D-88" value="" style="shape=waypoint;fillStyle=solid;size=6;pointerEvents=1;points=[];fillColor=none;resizable=0;rotatable=0;perimeter=centerPerimeter;snapToPoint=1;" vertex="1" parent="SHQMfxS1oJXAGr1VGw0D-113">
          <mxGeometry x="123" y="5.5" width="20" height="20" as="geometry" />
        </mxCell>
        <mxCell id="SHQMfxS1oJXAGr1VGw0D-91" value="" style="endArrow=none;html=1;rounded=0;fontSize=12;startSize=8;endSize=8;curved=1;" edge="1" parent="SHQMfxS1oJXAGr1VGw0D-113" target="SHQMfxS1oJXAGr1VGw0D-90">
          <mxGeometry width="50" height="50" relative="1" as="geometry">
            <mxPoint x="133.5" y="105" as="sourcePoint" />
            <mxPoint x="58.5" y="105" as="targetPoint" />
          </mxGeometry>
        </mxCell>
        <mxCell id="SHQMfxS1oJXAGr1VGw0D-90" value="" style="shape=waypoint;fillStyle=solid;size=6;pointerEvents=1;points=[];fillColor=none;resizable=0;rotatable=0;perimeter=centerPerimeter;snapToPoint=1;" vertex="1" parent="SHQMfxS1oJXAGr1VGw0D-113">
          <mxGeometry x="123" y="94.5" width="20" height="20" as="geometry" />
        </mxCell>
        <mxCell id="SHQMfxS1oJXAGr1VGw0D-93" value="" style="endArrow=none;html=1;rounded=0;fontSize=12;startSize=8;endSize=8;curved=1;" edge="1" parent="SHQMfxS1oJXAGr1VGw0D-113" source="SHQMfxS1oJXAGr1VGw0D-111" target="SHQMfxS1oJXAGr1VGw0D-92">
          <mxGeometry width="50" height="50" relative="1" as="geometry">
            <mxPoint x="133" y="104.5" as="sourcePoint" />
            <mxPoint x="58.5" y="105" as="targetPoint" />
          </mxGeometry>
        </mxCell>
        <mxCell id="SHQMfxS1oJXAGr1VGw0D-92" value="" style="shape=waypoint;fillStyle=solid;size=6;pointerEvents=1;points=[];fillColor=none;resizable=0;rotatable=0;perimeter=centerPerimeter;snapToPoint=1;" vertex="1" parent="SHQMfxS1oJXAGr1VGw0D-113">
          <mxGeometry x="49" y="94.5" width="20" height="20" as="geometry" />
        </mxCell>
        <mxCell id="SHQMfxS1oJXAGr1VGw0D-95" value="" style="endArrow=none;html=1;rounded=0;fontSize=12;startSize=8;endSize=8;curved=1;" edge="1" parent="SHQMfxS1oJXAGr1VGw0D-113" target="SHQMfxS1oJXAGr1VGw0D-94">
          <mxGeometry width="50" height="50" relative="1" as="geometry">
            <mxPoint x="58.5" y="60" as="sourcePoint" />
            <mxPoint x="88.5" y="60" as="targetPoint" />
          </mxGeometry>
        </mxCell>
        <mxCell id="SHQMfxS1oJXAGr1VGw0D-94" value="" style="shape=waypoint;fillStyle=solid;size=6;pointerEvents=1;points=[];fillColor=none;resizable=0;rotatable=0;perimeter=centerPerimeter;snapToPoint=1;" vertex="1" parent="SHQMfxS1oJXAGr1VGw0D-113">
          <mxGeometry x="49" y="50" width="20" height="20" as="geometry" />
        </mxCell>
        <mxCell id="SHQMfxS1oJXAGr1VGw0D-96" value="" style="endArrow=none;dashed=1;html=1;strokeWidth=2;rounded=0;fontSize=12;startSize=8;endSize=8;curved=1;dashPattern=1 2;" edge="1" parent="SHQMfxS1oJXAGr1VGw0D-113">
          <mxGeometry width="50" height="50" relative="1" as="geometry">
            <mxPoint x="58.5" y="70" as="sourcePoint" />
            <mxPoint x="133.5" y="70" as="targetPoint" />
          </mxGeometry>
        </mxCell>
        <mxCell id="SHQMfxS1oJXAGr1VGw0D-99" value="" style="endArrow=none;html=1;strokeWidth=2;rounded=0;fontSize=12;startSize=8;endSize=8;curved=1;dashed=1;dashPattern=1 1;" edge="1" parent="SHQMfxS1oJXAGr1VGw0D-113" source="SHQMfxS1oJXAGr1VGw0D-101">
          <mxGeometry width="50" height="50" relative="1" as="geometry">
            <mxPoint x="68.5" y="60" as="sourcePoint" />
            <mxPoint x="68.5" y="105" as="targetPoint" />
          </mxGeometry>
        </mxCell>
        <mxCell id="SHQMfxS1oJXAGr1VGw0D-102" value="" style="endArrow=none;html=1;strokeWidth=2;rounded=0;fontSize=12;startSize=8;endSize=8;curved=1;dashed=1;dashPattern=1 1;" edge="1" parent="SHQMfxS1oJXAGr1VGw0D-113" source="SHQMfxS1oJXAGr1VGw0D-106" target="SHQMfxS1oJXAGr1VGw0D-101">
          <mxGeometry width="50" height="50" relative="1" as="geometry">
            <mxPoint x="68.5" y="60" as="sourcePoint" />
            <mxPoint x="68.5" y="105" as="targetPoint" />
          </mxGeometry>
        </mxCell>
        <mxCell id="SHQMfxS1oJXAGr1VGw0D-101" value="" style="shape=waypoint;fillStyle=solid;size=6;pointerEvents=1;points=[];fillColor=#f8cecc;resizable=0;rotatable=0;perimeter=centerPerimeter;snapToPoint=1;strokeColor=#b85450;" vertex="1" parent="SHQMfxS1oJXAGr1VGw0D-113">
          <mxGeometry x="58.5" y="60" width="20" height="20" as="geometry" />
        </mxCell>
        <mxCell id="SHQMfxS1oJXAGr1VGw0D-104" value="" style="endArrow=none;html=1;rounded=0;fontSize=12;startSize=8;endSize=8;curved=1;" edge="1" parent="SHQMfxS1oJXAGr1VGw0D-113" target="SHQMfxS1oJXAGr1VGw0D-103">
          <mxGeometry width="50" height="50" relative="1" as="geometry">
            <mxPoint x="58.5" y="60" as="sourcePoint" />
            <mxPoint x="58.5" y="105" as="targetPoint" />
          </mxGeometry>
        </mxCell>
        <mxCell id="SHQMfxS1oJXAGr1VGw0D-103" value="" style="shape=waypoint;fillStyle=solid;size=6;pointerEvents=1;points=[];fillColor=#0050ef;resizable=0;rotatable=0;perimeter=centerPerimeter;snapToPoint=1;fontColor=#ffffff;strokeColor=#001DBC;" vertex="1" parent="SHQMfxS1oJXAGr1VGw0D-113">
          <mxGeometry x="49" y="60" width="20" height="20" as="geometry" />
        </mxCell>
        <mxCell id="SHQMfxS1oJXAGr1VGw0D-107" value="" style="endArrow=none;html=1;strokeWidth=2;rounded=0;fontSize=12;startSize=8;endSize=8;curved=1;dashed=1;dashPattern=1 1;" edge="1" parent="SHQMfxS1oJXAGr1VGw0D-113" target="SHQMfxS1oJXAGr1VGw0D-106">
          <mxGeometry width="50" height="50" relative="1" as="geometry">
            <mxPoint x="68.5" y="60" as="sourcePoint" />
            <mxPoint x="69" y="70.5" as="targetPoint" />
          </mxGeometry>
        </mxCell>
        <mxCell id="SHQMfxS1oJXAGr1VGw0D-106" value="" style="shape=waypoint;fillStyle=solid;size=6;pointerEvents=1;points=[];fillColor=#0050ef;resizable=0;rotatable=0;perimeter=centerPerimeter;snapToPoint=1;strokeColor=#001DBC;fontColor=#ffffff;" vertex="1" parent="SHQMfxS1oJXAGr1VGw0D-113">
          <mxGeometry x="58.5" y="50" width="20" height="20" as="geometry" />
        </mxCell>
        <mxCell id="SHQMfxS1oJXAGr1VGw0D-110" value="" style="endArrow=none;html=1;rounded=0;fontSize=12;startSize=8;endSize=8;curved=1;" edge="1" parent="SHQMfxS1oJXAGr1VGw0D-113" target="SHQMfxS1oJXAGr1VGw0D-109">
          <mxGeometry width="50" height="50" relative="1" as="geometry">
            <mxPoint x="133.5" y="15" as="sourcePoint" />
            <mxPoint x="133.5" y="105" as="targetPoint" />
          </mxGeometry>
        </mxCell>
        <mxCell id="SHQMfxS1oJXAGr1VGw0D-109" value="" style="shape=waypoint;fillStyle=solid;size=6;pointerEvents=1;points=[];fillColor=#0050ef;resizable=0;rotatable=0;perimeter=centerPerimeter;snapToPoint=1;strokeColor=#001DBC;fontColor=#ffffff;" vertex="1" parent="SHQMfxS1oJXAGr1VGw0D-113">
          <mxGeometry x="123" y="60" width="20" height="20" as="geometry" />
        </mxCell>
        <mxCell id="SHQMfxS1oJXAGr1VGw0D-112" value="" style="endArrow=none;html=1;rounded=0;fontSize=12;startSize=8;endSize=8;curved=1;" edge="1" parent="SHQMfxS1oJXAGr1VGw0D-113" source="SHQMfxS1oJXAGr1VGw0D-90" target="SHQMfxS1oJXAGr1VGw0D-111">
          <mxGeometry width="50" height="50" relative="1" as="geometry">
            <mxPoint x="133" y="104.5" as="sourcePoint" />
            <mxPoint x="59" y="104.5" as="targetPoint" />
          </mxGeometry>
        </mxCell>
        <mxCell id="SHQMfxS1oJXAGr1VGw0D-111" value="" style="shape=waypoint;fillStyle=solid;size=6;pointerEvents=1;points=[];fillColor=#0050ef;resizable=0;rotatable=0;perimeter=centerPerimeter;snapToPoint=1;strokeColor=#001DBC;fontColor=#ffffff;" vertex="1" parent="SHQMfxS1oJXAGr1VGw0D-113">
          <mxGeometry x="58" y="94.5" width="20" height="20" as="geometry" />
        </mxCell>
        <mxCell id="SHQMfxS1oJXAGr1VGw0D-160" value="" style="shape=waypoint;fillStyle=solid;size=6;pointerEvents=1;points=[];fillColor=none;resizable=0;rotatable=0;perimeter=centerPerimeter;snapToPoint=1;" vertex="1" parent="SHQMfxS1oJXAGr1VGw0D-113">
          <mxGeometry x="78" y="50" width="20" height="20" as="geometry" />
        </mxCell>
        <mxCell id="SHQMfxS1oJXAGr1VGw0D-114" value="" style="group;" vertex="1" connectable="0" parent="1">
          <mxGeometry x="200" y="80" width="147" height="136.5" as="geometry" />
        </mxCell>
        <mxCell id="SHQMfxS1oJXAGr1VGw0D-22" value="" style="rounded=1;whiteSpace=wrap;html=1;fillColor=none;fontColor=#333333;strokeColor=#666666;strokeWidth=2;" vertex="1" parent="SHQMfxS1oJXAGr1VGw0D-114">
          <mxGeometry width="147" height="136.5" as="geometry" />
        </mxCell>
        <mxCell id="SHQMfxS1oJXAGr1VGw0D-23" value="" style="rounded=0;whiteSpace=wrap;html=1;fillColor=#dae8fc;strokeColor=#6c8ebf;" vertex="1" parent="SHQMfxS1oJXAGr1VGw0D-114">
          <mxGeometry x="19" y="22.5" width="30" height="15" as="geometry" />
        </mxCell>
        <mxCell id="SHQMfxS1oJXAGr1VGw0D-24" value="" style="rounded=0;whiteSpace=wrap;html=1;fillColor=#dae8fc;strokeColor=#6c8ebf;" vertex="1" parent="SHQMfxS1oJXAGr1VGw0D-114">
          <mxGeometry x="96" y="22.5" width="30" height="15" as="geometry" />
        </mxCell>
        <mxCell id="SHQMfxS1oJXAGr1VGw0D-25" value="" style="rounded=0;whiteSpace=wrap;html=1;fillColor=#dae8fc;strokeColor=#6c8ebf;" vertex="1" parent="SHQMfxS1oJXAGr1VGw0D-114">
          <mxGeometry x="96" y="67.5" width="30" height="15" as="geometry" />
        </mxCell>
        <mxCell id="SHQMfxS1oJXAGr1VGw0D-26" value="" style="rounded=0;whiteSpace=wrap;html=1;fillColor=#dae8fc;strokeColor=#6c8ebf;" vertex="1" parent="SHQMfxS1oJXAGr1VGw0D-114">
          <mxGeometry x="96" y="37.5" width="30" height="15" as="geometry" />
        </mxCell>
        <mxCell id="SHQMfxS1oJXAGr1VGw0D-27" value="" style="rounded=0;whiteSpace=wrap;html=1;fillColor=#dae8fc;strokeColor=#6c8ebf;" vertex="1" parent="SHQMfxS1oJXAGr1VGw0D-114">
          <mxGeometry x="96" y="52.5" width="30" height="15" as="geometry" />
        </mxCell>
        <mxCell id="SHQMfxS1oJXAGr1VGw0D-28" value="" style="rounded=0;whiteSpace=wrap;html=1;fillColor=#dae8fc;strokeColor=#6c8ebf;" vertex="1" parent="SHQMfxS1oJXAGr1VGw0D-114">
          <mxGeometry x="96" y="82.5" width="30" height="15" as="geometry" />
        </mxCell>
        <mxCell id="SHQMfxS1oJXAGr1VGw0D-29" value="" style="rounded=0;whiteSpace=wrap;html=1;fillColor=#dae8fc;strokeColor=#6c8ebf;" vertex="1" parent="SHQMfxS1oJXAGr1VGw0D-114">
          <mxGeometry x="19" y="106.5" width="30" height="15" as="geometry" />
        </mxCell>
        <mxCell id="SHQMfxS1oJXAGr1VGw0D-30" value="" style="rounded=0;whiteSpace=wrap;html=1;fillColor=#dae8fc;strokeColor=#6c8ebf;" vertex="1" parent="SHQMfxS1oJXAGr1VGw0D-114">
          <mxGeometry x="66" y="67.5" width="30" height="15" as="geometry" />
        </mxCell>
        <mxCell id="SHQMfxS1oJXAGr1VGw0D-31" value="" style="rounded=0;whiteSpace=wrap;html=1;fillColor=#dae8fc;strokeColor=#6c8ebf;" vertex="1" parent="SHQMfxS1oJXAGr1VGw0D-114">
          <mxGeometry x="66" y="82.5" width="30" height="15" as="geometry" />
        </mxCell>
        <mxCell id="SHQMfxS1oJXAGr1VGw0D-32" value="" style="rounded=0;whiteSpace=wrap;html=1;fillColor=#f8cecc;strokeColor=#b85450;" vertex="1" parent="SHQMfxS1oJXAGr1VGw0D-114">
          <mxGeometry x="61" y="62.5" width="15" height="15" as="geometry" />
        </mxCell>
        <mxCell id="SHQMfxS1oJXAGr1VGw0D-33" value="" style="rounded=0;whiteSpace=wrap;html=1;fillColor=none;" vertex="1" parent="SHQMfxS1oJXAGr1VGw0D-114">
          <mxGeometry x="11.5" y="15" width="45" height="30" as="geometry" />
        </mxCell>
        <mxCell id="SHQMfxS1oJXAGr1VGw0D-37" value="" style="endArrow=none;html=1;rounded=0;fontSize=12;startSize=8;endSize=8;curved=1;" edge="1" parent="SHQMfxS1oJXAGr1VGw0D-114">
          <mxGeometry width="50" height="50" relative="1" as="geometry">
            <mxPoint x="58.5" y="60" as="sourcePoint" />
            <mxPoint x="88.5" y="60" as="targetPoint" />
          </mxGeometry>
        </mxCell>
        <mxCell id="SHQMfxS1oJXAGr1VGw0D-38" value="" style="endArrow=none;html=1;rounded=0;fontSize=12;startSize=8;endSize=8;curved=1;" edge="1" parent="SHQMfxS1oJXAGr1VGw0D-114">
          <mxGeometry width="50" height="50" relative="1" as="geometry">
            <mxPoint x="88.5" y="15" as="sourcePoint" />
            <mxPoint x="88.5" y="60" as="targetPoint" />
          </mxGeometry>
        </mxCell>
        <mxCell id="SHQMfxS1oJXAGr1VGw0D-39" value="" style="endArrow=none;html=1;rounded=0;fontSize=12;startSize=8;endSize=8;curved=1;" edge="1" parent="SHQMfxS1oJXAGr1VGw0D-114">
          <mxGeometry width="50" height="50" relative="1" as="geometry">
            <mxPoint x="88.5" y="15" as="sourcePoint" />
            <mxPoint x="133.5" y="15" as="targetPoint" />
          </mxGeometry>
        </mxCell>
        <mxCell id="SHQMfxS1oJXAGr1VGw0D-40" value="" style="endArrow=none;html=1;rounded=0;fontSize=12;startSize=8;endSize=8;curved=1;" edge="1" parent="SHQMfxS1oJXAGr1VGw0D-114">
          <mxGeometry width="50" height="50" relative="1" as="geometry">
            <mxPoint x="133.5" y="15" as="sourcePoint" />
            <mxPoint x="133.5" y="105" as="targetPoint" />
          </mxGeometry>
        </mxCell>
        <mxCell id="SHQMfxS1oJXAGr1VGw0D-41" value="" style="endArrow=none;html=1;rounded=0;fontSize=12;startSize=8;endSize=8;curved=1;" edge="1" parent="SHQMfxS1oJXAGr1VGw0D-114">
          <mxGeometry width="50" height="50" relative="1" as="geometry">
            <mxPoint x="133.5" y="105" as="sourcePoint" />
            <mxPoint x="58.5" y="105" as="targetPoint" />
          </mxGeometry>
        </mxCell>
        <mxCell id="SHQMfxS1oJXAGr1VGw0D-42" value="" style="endArrow=none;html=1;rounded=0;fontSize=12;startSize=8;endSize=8;curved=1;" edge="1" parent="SHQMfxS1oJXAGr1VGw0D-114">
          <mxGeometry width="50" height="50" relative="1" as="geometry">
            <mxPoint x="58.5" y="60" as="sourcePoint" />
            <mxPoint x="58.5" y="105" as="targetPoint" />
          </mxGeometry>
        </mxCell>
        <mxCell id="SHQMfxS1oJXAGr1VGw0D-47" value="" style="rounded=0;whiteSpace=wrap;html=1;fillColor=none;" vertex="1" parent="SHQMfxS1oJXAGr1VGw0D-114">
          <mxGeometry x="11.5" y="99" width="45" height="30" as="geometry" />
        </mxCell>
        <mxCell id="SHQMfxS1oJXAGr1VGw0D-115" value="" style="group;strokeWidth=4;" vertex="1" connectable="0" parent="1">
          <mxGeometry x="-20" y="80" width="147" height="136.5" as="geometry" />
        </mxCell>
        <mxCell id="SHQMfxS1oJXAGr1VGw0D-21" value="" style="rounded=1;whiteSpace=wrap;html=1;fillColor=none;fontColor=#333333;strokeColor=#666666;strokeWidth=2;" vertex="1" parent="SHQMfxS1oJXAGr1VGw0D-115">
          <mxGeometry width="147" height="136.5" as="geometry" />
        </mxCell>
        <mxCell id="SHQMfxS1oJXAGr1VGw0D-1" value="" style="rounded=0;whiteSpace=wrap;html=1;fillColor=#dae8fc;strokeColor=#6c8ebf;" vertex="1" parent="SHQMfxS1oJXAGr1VGw0D-115">
          <mxGeometry x="19" y="22.5" width="30" height="15" as="geometry" />
        </mxCell>
        <mxCell id="SHQMfxS1oJXAGr1VGw0D-2" value="" style="rounded=0;whiteSpace=wrap;html=1;fillColor=#dae8fc;strokeColor=#6c8ebf;" vertex="1" parent="SHQMfxS1oJXAGr1VGw0D-115">
          <mxGeometry x="96" y="22.5" width="30" height="15" as="geometry" />
        </mxCell>
        <mxCell id="SHQMfxS1oJXAGr1VGw0D-3" value="" style="rounded=0;whiteSpace=wrap;html=1;fillColor=#dae8fc;strokeColor=#6c8ebf;" vertex="1" parent="SHQMfxS1oJXAGr1VGw0D-115">
          <mxGeometry x="96" y="67.5" width="30" height="15" as="geometry" />
        </mxCell>
        <mxCell id="SHQMfxS1oJXAGr1VGw0D-4" value="" style="rounded=0;whiteSpace=wrap;html=1;fillColor=#dae8fc;strokeColor=#6c8ebf;" vertex="1" parent="SHQMfxS1oJXAGr1VGw0D-115">
          <mxGeometry x="96" y="37.5" width="30" height="15" as="geometry" />
        </mxCell>
        <mxCell id="SHQMfxS1oJXAGr1VGw0D-11" value="" style="rounded=0;whiteSpace=wrap;html=1;fillColor=#dae8fc;strokeColor=#6c8ebf;" vertex="1" parent="SHQMfxS1oJXAGr1VGw0D-115">
          <mxGeometry x="96" y="52.5" width="30" height="15" as="geometry" />
        </mxCell>
        <mxCell id="SHQMfxS1oJXAGr1VGw0D-12" value="" style="rounded=0;whiteSpace=wrap;html=1;fillColor=#dae8fc;strokeColor=#6c8ebf;" vertex="1" parent="SHQMfxS1oJXAGr1VGw0D-115">
          <mxGeometry x="96" y="82.5" width="30" height="15" as="geometry" />
        </mxCell>
        <mxCell id="SHQMfxS1oJXAGr1VGw0D-14" value="" style="rounded=0;whiteSpace=wrap;html=1;fillColor=#dae8fc;strokeColor=#6c8ebf;" vertex="1" parent="SHQMfxS1oJXAGr1VGw0D-115">
          <mxGeometry x="19" y="104.5" width="30" height="15" as="geometry" />
        </mxCell>
        <mxCell id="SHQMfxS1oJXAGr1VGw0D-16" value="" style="rounded=0;whiteSpace=wrap;html=1;fillColor=#dae8fc;strokeColor=#6c8ebf;" vertex="1" parent="SHQMfxS1oJXAGr1VGw0D-115">
          <mxGeometry x="66" y="67.5" width="30" height="15" as="geometry" />
        </mxCell>
        <mxCell id="SHQMfxS1oJXAGr1VGw0D-13" value="" style="rounded=0;whiteSpace=wrap;html=1;fillColor=#dae8fc;strokeColor=#6c8ebf;" vertex="1" parent="SHQMfxS1oJXAGr1VGw0D-115">
          <mxGeometry x="66" y="82.5" width="30" height="15" as="geometry" />
        </mxCell>
        <mxCell id="SHQMfxS1oJXAGr1VGw0D-5" value="" style="rounded=0;whiteSpace=wrap;html=1;fillColor=#f8cecc;strokeColor=#b85450;" vertex="1" parent="SHQMfxS1oJXAGr1VGw0D-115">
          <mxGeometry x="61" y="62.5" width="15" height="15" as="geometry" />
        </mxCell>
        <mxCell id="SHQMfxS1oJXAGr1VGw0D-116" value="" style="group;" vertex="1" connectable="0" parent="1">
          <mxGeometry x="-20" y="296" width="147" height="136.5" as="geometry" />
        </mxCell>
        <mxCell id="SHQMfxS1oJXAGr1VGw0D-117" value="" style="rounded=1;whiteSpace=wrap;html=1;fillColor=none;fontColor=#333333;strokeColor=#666666;strokeWidth=2;" vertex="1" parent="SHQMfxS1oJXAGr1VGw0D-116">
          <mxGeometry width="147" height="136.5" as="geometry" />
        </mxCell>
        <mxCell id="SHQMfxS1oJXAGr1VGw0D-118" value="" style="rounded=0;whiteSpace=wrap;html=1;fillColor=#dae8fc;strokeColor=#6c8ebf;" vertex="1" parent="SHQMfxS1oJXAGr1VGw0D-116">
          <mxGeometry x="19" y="22.5" width="30" height="15" as="geometry" />
        </mxCell>
        <mxCell id="SHQMfxS1oJXAGr1VGw0D-119" value="" style="rounded=0;whiteSpace=wrap;html=1;fillColor=#dae8fc;strokeColor=#6c8ebf;" vertex="1" parent="SHQMfxS1oJXAGr1VGw0D-116">
          <mxGeometry x="96" y="22.5" width="30" height="15" as="geometry" />
        </mxCell>
        <mxCell id="SHQMfxS1oJXAGr1VGw0D-120" value="" style="rounded=0;whiteSpace=wrap;html=1;fillColor=#dae8fc;strokeColor=#6c8ebf;" vertex="1" parent="SHQMfxS1oJXAGr1VGw0D-116">
          <mxGeometry x="96" y="67.5" width="30" height="15" as="geometry" />
        </mxCell>
        <mxCell id="SHQMfxS1oJXAGr1VGw0D-121" value="" style="rounded=0;whiteSpace=wrap;html=1;fillColor=#dae8fc;strokeColor=#6c8ebf;" vertex="1" parent="SHQMfxS1oJXAGr1VGw0D-116">
          <mxGeometry x="96" y="37.5" width="30" height="15" as="geometry" />
        </mxCell>
        <mxCell id="SHQMfxS1oJXAGr1VGw0D-122" value="" style="rounded=0;whiteSpace=wrap;html=1;fillColor=#dae8fc;strokeColor=#6c8ebf;" vertex="1" parent="SHQMfxS1oJXAGr1VGw0D-116">
          <mxGeometry x="96" y="52.5" width="30" height="15" as="geometry" />
        </mxCell>
        <mxCell id="SHQMfxS1oJXAGr1VGw0D-123" value="" style="rounded=0;whiteSpace=wrap;html=1;fillColor=#dae8fc;strokeColor=#6c8ebf;" vertex="1" parent="SHQMfxS1oJXAGr1VGw0D-116">
          <mxGeometry x="96" y="82.5" width="30" height="15" as="geometry" />
        </mxCell>
        <mxCell id="SHQMfxS1oJXAGr1VGw0D-124" value="" style="rounded=0;whiteSpace=wrap;html=1;fillColor=#dae8fc;strokeColor=#6c8ebf;" vertex="1" parent="SHQMfxS1oJXAGr1VGw0D-116">
          <mxGeometry x="19" y="106.5" width="30" height="15" as="geometry" />
        </mxCell>
        <mxCell id="SHQMfxS1oJXAGr1VGw0D-125" value="" style="rounded=0;whiteSpace=wrap;html=1;fillColor=#dae8fc;strokeColor=#6c8ebf;" vertex="1" parent="SHQMfxS1oJXAGr1VGw0D-116">
          <mxGeometry x="66" y="67.5" width="30" height="15" as="geometry" />
        </mxCell>
        <mxCell id="SHQMfxS1oJXAGr1VGw0D-126" value="" style="rounded=0;whiteSpace=wrap;html=1;fillColor=#dae8fc;strokeColor=#6c8ebf;" vertex="1" parent="SHQMfxS1oJXAGr1VGw0D-116">
          <mxGeometry x="66" y="82.5" width="30" height="15" as="geometry" />
        </mxCell>
        <mxCell id="SHQMfxS1oJXAGr1VGw0D-127" value="" style="rounded=0;whiteSpace=wrap;html=1;fillColor=#f8cecc;strokeColor=#b85450;" vertex="1" parent="SHQMfxS1oJXAGr1VGw0D-116">
          <mxGeometry x="51" y="52.5" width="15" height="15" as="geometry" />
        </mxCell>
        <mxCell id="SHQMfxS1oJXAGr1VGw0D-128" value="" style="rounded=0;whiteSpace=wrap;html=1;fillColor=none;" vertex="1" parent="SHQMfxS1oJXAGr1VGw0D-116">
          <mxGeometry x="11.5" y="15" width="45" height="30" as="geometry" />
        </mxCell>
        <mxCell id="SHQMfxS1oJXAGr1VGw0D-129" value="" style="endArrow=none;html=1;rounded=0;fontSize=12;startSize=8;endSize=8;curved=1;" edge="1" parent="SHQMfxS1oJXAGr1VGw0D-116" source="SHQMfxS1oJXAGr1VGw0D-145">
          <mxGeometry width="50" height="50" relative="1" as="geometry">
            <mxPoint x="58.5" y="60" as="sourcePoint" />
            <mxPoint x="88.5" y="60" as="targetPoint" />
          </mxGeometry>
        </mxCell>
        <mxCell id="SHQMfxS1oJXAGr1VGw0D-130" value="" style="endArrow=none;html=1;rounded=0;fontSize=12;startSize=8;endSize=8;curved=1;" edge="1" parent="SHQMfxS1oJXAGr1VGw0D-116" source="SHQMfxS1oJXAGr1VGw0D-137">
          <mxGeometry width="50" height="50" relative="1" as="geometry">
            <mxPoint x="88.5" y="15" as="sourcePoint" />
            <mxPoint x="88.5" y="60" as="targetPoint" />
          </mxGeometry>
        </mxCell>
        <mxCell id="SHQMfxS1oJXAGr1VGw0D-131" value="" style="endArrow=none;html=1;rounded=0;fontSize=12;startSize=8;endSize=8;curved=1;" edge="1" parent="SHQMfxS1oJXAGr1VGw0D-116" source="SHQMfxS1oJXAGr1VGw0D-139">
          <mxGeometry width="50" height="50" relative="1" as="geometry">
            <mxPoint x="88.5" y="15" as="sourcePoint" />
            <mxPoint x="133.5" y="15" as="targetPoint" />
          </mxGeometry>
        </mxCell>
        <mxCell id="SHQMfxS1oJXAGr1VGw0D-132" value="" style="endArrow=none;html=1;rounded=0;fontSize=12;startSize=8;endSize=8;curved=1;" edge="1" parent="SHQMfxS1oJXAGr1VGw0D-116" source="SHQMfxS1oJXAGr1VGw0D-155">
          <mxGeometry width="50" height="50" relative="1" as="geometry">
            <mxPoint x="133.5" y="15" as="sourcePoint" />
            <mxPoint x="133.5" y="105" as="targetPoint" />
          </mxGeometry>
        </mxCell>
        <mxCell id="SHQMfxS1oJXAGr1VGw0D-133" value="" style="endArrow=none;html=1;rounded=0;fontSize=12;startSize=8;endSize=8;curved=1;" edge="1" parent="SHQMfxS1oJXAGr1VGw0D-116" source="SHQMfxS1oJXAGr1VGw0D-143">
          <mxGeometry width="50" height="50" relative="1" as="geometry">
            <mxPoint x="133.5" y="105" as="sourcePoint" />
            <mxPoint x="58.5" y="105" as="targetPoint" />
          </mxGeometry>
        </mxCell>
        <mxCell id="SHQMfxS1oJXAGr1VGw0D-134" value="" style="endArrow=none;html=1;rounded=0;fontSize=12;startSize=8;endSize=8;curved=1;" edge="1" parent="SHQMfxS1oJXAGr1VGw0D-116">
          <mxGeometry width="50" height="50" relative="1" as="geometry">
            <mxPoint x="58.8" y="70" as="sourcePoint" />
            <mxPoint x="58.5" y="105" as="targetPoint" />
          </mxGeometry>
        </mxCell>
        <mxCell id="SHQMfxS1oJXAGr1VGw0D-135" value="" style="rounded=0;whiteSpace=wrap;html=1;fillColor=none;" vertex="1" parent="SHQMfxS1oJXAGr1VGw0D-116">
          <mxGeometry x="11.5" y="99" width="45" height="30" as="geometry" />
        </mxCell>
        <mxCell id="SHQMfxS1oJXAGr1VGw0D-136" value="" style="endArrow=none;html=1;rounded=0;fontSize=12;startSize=8;endSize=8;curved=1;" edge="1" parent="SHQMfxS1oJXAGr1VGw0D-116" target="SHQMfxS1oJXAGr1VGw0D-137">
          <mxGeometry width="50" height="50" relative="1" as="geometry">
            <mxPoint x="88.5" y="15" as="sourcePoint" />
            <mxPoint x="88.5" y="60" as="targetPoint" />
          </mxGeometry>
        </mxCell>
        <mxCell id="SHQMfxS1oJXAGr1VGw0D-137" value="" style="shape=waypoint;fillStyle=solid;size=6;pointerEvents=1;points=[];fillColor=none;resizable=0;rotatable=0;perimeter=centerPerimeter;snapToPoint=1;" vertex="1" parent="SHQMfxS1oJXAGr1VGw0D-116">
          <mxGeometry x="78" y="5.5" width="20" height="20" as="geometry" />
        </mxCell>
        <mxCell id="SHQMfxS1oJXAGr1VGw0D-138" value="" style="endArrow=none;html=1;rounded=0;fontSize=12;startSize=8;endSize=8;curved=1;" edge="1" parent="SHQMfxS1oJXAGr1VGw0D-116" target="SHQMfxS1oJXAGr1VGw0D-139">
          <mxGeometry width="50" height="50" relative="1" as="geometry">
            <mxPoint x="88.5" y="15" as="sourcePoint" />
            <mxPoint x="133.5" y="15" as="targetPoint" />
          </mxGeometry>
        </mxCell>
        <mxCell id="SHQMfxS1oJXAGr1VGw0D-139" value="" style="shape=waypoint;fillStyle=solid;size=6;pointerEvents=1;points=[];fillColor=none;resizable=0;rotatable=0;perimeter=centerPerimeter;snapToPoint=1;" vertex="1" parent="SHQMfxS1oJXAGr1VGw0D-116">
          <mxGeometry x="123" y="5.5" width="20" height="20" as="geometry" />
        </mxCell>
        <mxCell id="SHQMfxS1oJXAGr1VGw0D-140" value="" style="endArrow=none;html=1;rounded=0;fontSize=12;startSize=8;endSize=8;curved=1;" edge="1" parent="SHQMfxS1oJXAGr1VGw0D-116" target="SHQMfxS1oJXAGr1VGw0D-141">
          <mxGeometry width="50" height="50" relative="1" as="geometry">
            <mxPoint x="133.5" y="105" as="sourcePoint" />
            <mxPoint x="58.5" y="105" as="targetPoint" />
          </mxGeometry>
        </mxCell>
        <mxCell id="SHQMfxS1oJXAGr1VGw0D-141" value="" style="shape=waypoint;fillStyle=solid;size=6;pointerEvents=1;points=[];fillColor=none;resizable=0;rotatable=0;perimeter=centerPerimeter;snapToPoint=1;" vertex="1" parent="SHQMfxS1oJXAGr1VGw0D-116">
          <mxGeometry x="123" y="94.5" width="20" height="20" as="geometry" />
        </mxCell>
        <mxCell id="SHQMfxS1oJXAGr1VGw0D-142" value="" style="endArrow=none;html=1;rounded=0;fontSize=12;startSize=8;endSize=8;curved=1;" edge="1" parent="SHQMfxS1oJXAGr1VGw0D-116" source="SHQMfxS1oJXAGr1VGw0D-157" target="SHQMfxS1oJXAGr1VGw0D-143">
          <mxGeometry width="50" height="50" relative="1" as="geometry">
            <mxPoint x="133" y="104.5" as="sourcePoint" />
            <mxPoint x="58.5" y="105" as="targetPoint" />
          </mxGeometry>
        </mxCell>
        <mxCell id="SHQMfxS1oJXAGr1VGw0D-143" value="" style="shape=waypoint;fillStyle=solid;size=6;pointerEvents=1;points=[];fillColor=none;resizable=0;rotatable=0;perimeter=centerPerimeter;snapToPoint=1;" vertex="1" parent="SHQMfxS1oJXAGr1VGw0D-116">
          <mxGeometry x="49" y="94.5" width="20" height="20" as="geometry" />
        </mxCell>
        <mxCell id="SHQMfxS1oJXAGr1VGw0D-144" value="" style="endArrow=none;html=1;rounded=0;fontSize=12;startSize=8;endSize=8;curved=1;" edge="1" parent="SHQMfxS1oJXAGr1VGw0D-116" target="SHQMfxS1oJXAGr1VGw0D-145">
          <mxGeometry width="50" height="50" relative="1" as="geometry">
            <mxPoint x="58.5" y="60" as="sourcePoint" />
            <mxPoint x="88.5" y="60" as="targetPoint" />
          </mxGeometry>
        </mxCell>
        <mxCell id="SHQMfxS1oJXAGr1VGw0D-145" value="" style="shape=waypoint;fillStyle=solid;size=6;pointerEvents=1;points=[];fillColor=none;resizable=0;rotatable=0;perimeter=centerPerimeter;snapToPoint=1;" vertex="1" parent="SHQMfxS1oJXAGr1VGw0D-116">
          <mxGeometry x="49" y="50" width="20" height="20" as="geometry" />
        </mxCell>
        <mxCell id="SHQMfxS1oJXAGr1VGw0D-150" value="" style="endArrow=none;html=1;rounded=0;fontSize=12;startSize=8;endSize=8;curved=1;" edge="1" parent="SHQMfxS1oJXAGr1VGw0D-116">
          <mxGeometry width="50" height="50" relative="1" as="geometry">
            <mxPoint x="58.5" y="60" as="sourcePoint" />
            <mxPoint x="59" y="70" as="targetPoint" />
          </mxGeometry>
        </mxCell>
        <mxCell id="SHQMfxS1oJXAGr1VGw0D-152" value="" style="endArrow=none;html=1;strokeWidth=2;rounded=0;fontSize=12;startSize=8;endSize=8;curved=1;dashed=1;dashPattern=1 1;" edge="1" parent="SHQMfxS1oJXAGr1VGw0D-116">
          <mxGeometry width="50" height="50" relative="1" as="geometry">
            <mxPoint x="68.5" y="60" as="sourcePoint" />
            <mxPoint x="68.5" y="60" as="targetPoint" />
          </mxGeometry>
        </mxCell>
        <mxCell id="SHQMfxS1oJXAGr1VGw0D-154" value="" style="endArrow=none;html=1;rounded=0;fontSize=12;startSize=8;endSize=8;curved=1;" edge="1" parent="SHQMfxS1oJXAGr1VGw0D-116" target="SHQMfxS1oJXAGr1VGw0D-155">
          <mxGeometry width="50" height="50" relative="1" as="geometry">
            <mxPoint x="133.5" y="15" as="sourcePoint" />
            <mxPoint x="133.5" y="105" as="targetPoint" />
          </mxGeometry>
        </mxCell>
        <mxCell id="SHQMfxS1oJXAGr1VGw0D-155" value="" style="shape=waypoint;fillStyle=solid;size=6;pointerEvents=1;points=[];fillColor=#0050ef;resizable=0;rotatable=0;perimeter=centerPerimeter;snapToPoint=1;strokeColor=#001DBC;fontColor=#ffffff;" vertex="1" parent="SHQMfxS1oJXAGr1VGw0D-116">
          <mxGeometry x="123" y="60" width="20" height="20" as="geometry" />
        </mxCell>
        <mxCell id="SHQMfxS1oJXAGr1VGw0D-156" value="" style="endArrow=none;html=1;rounded=0;fontSize=12;startSize=8;endSize=8;curved=1;" edge="1" parent="SHQMfxS1oJXAGr1VGw0D-116" source="SHQMfxS1oJXAGr1VGw0D-141" target="SHQMfxS1oJXAGr1VGw0D-157">
          <mxGeometry width="50" height="50" relative="1" as="geometry">
            <mxPoint x="133" y="104.5" as="sourcePoint" />
            <mxPoint x="59" y="104.5" as="targetPoint" />
          </mxGeometry>
        </mxCell>
        <mxCell id="SHQMfxS1oJXAGr1VGw0D-157" value="" style="shape=waypoint;fillStyle=solid;size=6;pointerEvents=1;points=[];fillColor=#0050ef;resizable=0;rotatable=0;perimeter=centerPerimeter;snapToPoint=1;strokeColor=#001DBC;fontColor=#ffffff;" vertex="1" parent="SHQMfxS1oJXAGr1VGw0D-116">
          <mxGeometry x="58" y="94.5" width="20" height="20" as="geometry" />
        </mxCell>
        <mxCell id="SHQMfxS1oJXAGr1VGw0D-161" value="" style="shape=waypoint;fillStyle=solid;size=6;pointerEvents=1;points=[];fillColor=none;resizable=0;rotatable=0;perimeter=centerPerimeter;snapToPoint=1;" vertex="1" parent="SHQMfxS1oJXAGr1VGw0D-116">
          <mxGeometry x="78" y="50" width="20" height="20" as="geometry" />
        </mxCell>
        <mxCell id="SHQMfxS1oJXAGr1VGw0D-162" value="" style="rounded=0;whiteSpace=wrap;html=1;fillColor=none;" vertex="1" parent="SHQMfxS1oJXAGr1VGw0D-116">
          <mxGeometry x="45.5" y="45" width="27.5" height="29" as="geometry" />
        </mxCell>
      </root>
    </mxGraphModel>
  </diagram>
</mxfile>
